<svg xmlns="http://www.w3.org/2000/svg" xmlns:xlink="http://www.w3.org/1999/xlink" contentStyleType="text/css" data-diagram-type="SEQUENCE" height="656.25px" preserveAspectRatio="none" style="width:760px;height:656px;" version="1.1" viewBox="0 0 760 656" width="760.4167px" zoomAndPan="magnify"><rect width="100%" height="100%" fill="white"/><title>Generate code from SQL</title><defs><linearGradient id="geuxbuns77rj40" x1="50%" x2="50%" y1="0%" y2="100%"><stop offset="0%" stop-color="#EDF0F2"/><stop offset="100%" stop-color="#E9ECEF"/></linearGradient><linearGradient id="geuxbuns77rj41" x1="50%" x2="50%" y1="0%" y2="100%"><stop offset="0%" stop-color="#59B6EC"/><stop offset="100%" stop-color="#2FA4E7"/></linearGradient></defs><g><rect fill="url(#geuxbuns77rj40)" height="47.168" rx="4.1667" ry="4.1667" style="stroke:#BABDBF;stroke-width:1.0417;" width="310.3414" x="237.9038" y="20.8333"/><text fill="#2FA4E7" font-family="Verdana" font-size="20.8333" font-weight="bold" lengthAdjust="spacing" textLength="287.4247" x="249.3622" y="51.6296">Generate code from SQL</text><g><title>Api</title><rect fill="#EDF0F2" height="331.0221" style="stroke:#BABDBF;stroke-width:1.0417;" width="10.4167" x="279.5593" y="209.6029"/></g><g><title>Parser</title><rect fill="#EDF0F2" height="251.9206" style="stroke:#BABDBF;stroke-width:1.0417;" width="10.4167" x="491.8762" y="249.1536"/></g><g><title>User</title><rect fill="#000000" fill-opacity="0.00000" height="391.4063" width="8.3333" x="34.0373" y="167.9688"/><line style="stroke:#BABDBF;stroke-width:1.0417;stroke-dasharray:5.0,5.0;" x1="37.5" x2="37.5" y1="167.9688" y2="559.375"/></g><g><title>Api</title><rect fill="#000000" fill-opacity="0.00000" height="391.4063" width="8.3333" x="280.601" y="167.9688"/><line style="stroke:#BABDBF;stroke-width:1.0417;stroke-dasharray:5.0,5.0;" x1="284.1634" x2="284.1634" y1="167.9688" y2="559.375"/></g><g><title>Parser</title><rect fill="#000000" fill-opacity="0.00000" height="391.4063" width="8.3333" x="492.9179" y="167.9688"/><line style="stroke:#BABDBF;stroke-width:1.0417;stroke-dasharray:5.0,5.0;" x1="497.0367" x2="497.0367" y1="167.9688" y2="559.375"/></g><g class="participant participant-head" data-participant="u"><text fill="#343A40" font-family="Verdana" font-size="12.5" lengthAdjust="spacing" textLength="28.4912" x="20.8333" y="159.8124">User</text><ellipse cx="38.2039" cy="88.8346" fill="url(#geuxbuns77rj41)" rx="8.3333" ry="8.3333" style="stroke:#2FA4E7;stroke-width:1.0417;"/><path d="M38.2039,97.168 L38.2039,125.293 M24.6623,105.5013 L51.7456,105.5013 M38.2039,125.293 L24.6623,140.918 M38.2039,125.293 L51.7456,140.918" fill="none" style="stroke:#2FA4E7;stroke-width:1.0417;"/></g><g class="participant participant-tail" data-participant="u"><text fill="#343A40" font-family="Verdana" font-size="12.5" lengthAdjust="spacing" textLength="28.4912" x="20.8333" y="575.1444">User</text><ellipse cx="38.2039" cy="592.6758" fill="url(#geuxbuns77rj41)" rx="8.3333" ry="8.3333" style="stroke:#2FA4E7;stroke-width:1.0417;"/><path d="M38.2039,601.0091 L38.2039,629.1341 M24.6623,609.3424 L51.7456,609.3424 M38.2039,629.1341 L24.6623,644.7591 M38.2039,629.1341 L51.7456,644.7591" fill="none" style="stroke:#2FA4E7;stroke-width:1.0417;"/></g><g class="participant participant-head" data-participant="a"><rect fill="url(#geuxbuns77rj41)" height="39.5508" rx="4.1667" ry="4.1667" style="stroke:#2FA4E7;stroke-width:1.0417;" width="44.9585" x="262.2884" y="127.3763"/><text fill="#FFFFFF" font-family="Verdana" font-size="12.5" lengthAdjust="spacing" textLength="19.9585" x="274.7884" y="151.4791">Api</text></g><g class="participant participant-tail" data-participant="a"><rect fill="url(#geuxbuns77rj41)" height="39.5508" rx="4.1667" ry="4.1667" style="stroke:#2FA4E7;stroke-width:1.0417;" width="44.9585" x="262.2884" y="558.3333"/><text fill="#FFFFFF" font-family="Verdana" font-size="12.5" lengthAdjust="spacing" textLength="19.9585" x="274.7884" y="582.4361">Api</text></g><g class="participant participant-head" data-participant="p"><rect fill="url(#geuxbuns77rj41)" height="39.5508" rx="4.1667" ry="4.1667" style="stroke:#2FA4E7;stroke-width:1.0417;" width="64.679" x="464.7451" y="127.3763"/><text fill="#FFFFFF" font-family="Verdana" font-size="12.5" lengthAdjust="spacing" textLength="39.679" x="477.2451" y="151.4791">Parser</text></g><g class="participant participant-tail" data-participant="p"><rect fill="url(#geuxbuns77rj41)" height="39.5508" rx="4.1667" ry="4.1667" style="stroke:#2FA4E7;stroke-width:1.0417;" width="64.679" x="464.7451" y="558.3333"/><text fill="#FFFFFF" font-family="Verdana" font-size="12.5" lengthAdjust="spacing" textLength="39.679" x="477.2451" y="582.4361">Parser</text></g><g><title>Api</title><rect fill="#EDF0F2" height="331.0221" style="stroke:#BABDBF;stroke-width:1.0417;" width="10.4167" x="279.5593" y="209.6029"/></g><g><title>Parser</title><rect fill="#EDF0F2" height="251.9206" style="stroke:#BABDBF;stroke-width:1.0417;" width="10.4167" x="491.8762" y="249.1536"/></g><g class="message" data-participant-1="u" data-participant-2="a"><polygon fill="#2FA4E7" points="267.0593,205.4362,277.476,209.6029,267.0593,213.7695,271.226,209.6029" style="stroke:#2FA4E7;stroke-width:1.0417;"/><line style="stroke:#2FA4E7;stroke-width:3.125;" x1="38.2039" x2="273.3093" y1="209.6029" y2="209.6029"/><text fill="#343A40" font-family="Verdana" font-size="12.5" lengthAdjust="spacing" textLength="101.9165" x="50.7039" y="199.3632">Submit SQL text</text></g><g class="message" data-participant-1="a" data-participant-2="p"><polygon fill="#2FA4E7" points="479.3762,244.987,489.7929,249.1536,479.3762,253.3203,483.5429,249.1536" style="stroke:#2FA4E7;stroke-width:1.0417;"/><line style="stroke:#2FA4E7;stroke-width:3.125;" x1="289.976" x2="485.6262" y1="249.1536" y2="249.1536"/><text fill="#343A40" font-family="Verdana" font-size="12.5" lengthAdjust="spacing" textLength="171.6919" x="302.476" y="238.914">Parse SQL &amp; generate code</text></g><g class="message" data-participant-1="p" data-participant-2="p"><line style="stroke:#2FA4E7;stroke-width:3.125;" x1="502.2929" x2="546.0429" y1="288.7044" y2="288.7044"/><line style="stroke:#2FA4E7;stroke-width:3.125;" x1="546.0429" x2="546.0429" y1="288.7044" y2="302.2461"/><line style="stroke:#2FA4E7;stroke-width:3.125;" x1="503.3346" x2="546.0429" y1="302.2461" y2="302.2461"/><polygon fill="#2FA4E7" points="513.7512,298.0794,503.3346,302.2461,513.7512,306.4128,509.5846,302.2461" style="stroke:#2FA4E7;stroke-width:1.0417;"/><text fill="#343A40" font-family="Verdana" font-size="12.5" lengthAdjust="spacing" textLength="138.092" x="514.7929" y="278.4648">Parse SQL statements</text></g><g class="message" data-participant-1="p" data-participant-2="p"><line style="stroke:#2FA4E7;stroke-width:3.125;" x1="502.2929" x2="546.0429" y1="341.7969" y2="341.7969"/><line style="stroke:#2FA4E7;stroke-width:3.125;" x1="546.0429" x2="546.0429" y1="341.7969" y2="355.3385"/><line style="stroke:#2FA4E7;stroke-width:3.125;" x1="503.3346" x2="546.0429" y1="355.3385" y2="355.3385"/><polygon fill="#2FA4E7" points="513.7512,351.1719,503.3346,355.3385,513.7512,359.5052,509.5846,355.3385" style="stroke:#2FA4E7;stroke-width:1.0417;"/><text fill="#343A40" font-family="Verdana" font-size="12.5" lengthAdjust="spacing" textLength="195.7275" x="514.7929" y="331.5572">Create table relationship graph</text></g><g class="message" data-participant-1="p" data-participant-2="p"><line style="stroke:#2FA4E7;stroke-width:3.125;" x1="502.2929" x2="546.0429" y1="394.8893" y2="394.8893"/><line style="stroke:#2FA4E7;stroke-width:3.125;" x1="546.0429" x2="546.0429" y1="394.8893" y2="408.431"/><line style="stroke:#2FA4E7;stroke-width:3.125;" x1="503.3346" x2="546.0429" y1="408.431" y2="408.431"/><polygon fill="#2FA4E7" points="513.7512,404.2643,503.3346,408.431,513.7512,412.5977,509.5846,408.431" style="stroke:#2FA4E7;stroke-width:1.0417;"/><text fill="#343A40" font-family="Verdana" font-size="12.5" lengthAdjust="spacing" textLength="206.6589" x="514.7929" y="384.6497">Generate entity code from graph</text></g><g class="message" data-participant-1="p" data-participant-2="p"><line style="stroke:#2FA4E7;stroke-width:3.125;" x1="502.2929" x2="546.0429" y1="447.9818" y2="447.9818"/><line style="stroke:#2FA4E7;stroke-width:3.125;" x1="546.0429" x2="546.0429" y1="447.9818" y2="461.5234"/><line style="stroke:#2FA4E7;stroke-width:3.125;" x1="503.3346" x2="546.0429" y1="461.5234" y2="461.5234"/><polygon fill="#2FA4E7" points="513.7512,457.3568,503.3346,461.5234,513.7512,465.6901,509.5846,461.5234" style="stroke:#2FA4E7;stroke-width:1.0417;"/><text fill="#343A40" font-family="Verdana" font-size="12.5" lengthAdjust="spacing" textLength="233.8562" x="514.7929" y="437.7421">Generate repository code from graph</text></g><g class="message" data-participant-1="p" data-participant-2="a"><polygon fill="#2FA4E7" points="301.4343,496.9076,291.0177,501.0742,301.4343,505.2409,297.2677,501.0742" style="stroke:#2FA4E7;stroke-width:1.0417;"/><line style="stroke:#2FA4E7;stroke-width:3.125;stroke-dasharray:2.0,2.0;" x1="295.1843" x2="496.0429" y1="501.0742" y2="501.0742"/><text fill="#343A40" font-family="Verdana" font-size="12.5" lengthAdjust="spacing" textLength="144.9158" x="312.8927" y="490.8346">Return generated code</text></g><g class="message" data-participant-1="a" data-participant-2="u"><polygon fill="#2FA4E7" points="49.6623,536.4583,39.2456,540.625,49.6623,544.7917,45.4956,540.625" style="stroke:#2FA4E7;stroke-width:1.0417;"/><line style="stroke:#2FA4E7;stroke-width:3.125;stroke-dasharray:2.0,2.0;" x1="43.4123" x2="283.726" y1="540.625" y2="540.625"/><text fill="#343A40" font-family="Verdana" font-size="12.5" lengthAdjust="spacing" textLength="205.9387" x="61.1206" y="530.3853">Return generated code response</text></g><!--SRC=[TP0x3i8m38RtdC8iR5o00Gani33m40SmhQ6MsiHo70It9w6e507hxy-FpnDhg2EeI5DBw9snjGHhygHeEGyrmLb31uVTnZciB2WS8obWXEG4rRXYGM-m52uXVeHRr1SipYMOBG3dS4YdZgrC1AERbQbyBTlGOK5atlSzYIbSniUyON7o1KVBbOwynQ6uKYgquIbxARLe77niME2YACt03Sgvc-q-Cl_3AKc8dF_na-rDzsH9_M1GzmerZIJmoQO_RDuI9T_xqOGF]--></g></svg>