<svg xmlns="http://www.w3.org/2000/svg" xmlns:xlink="http://www.w3.org/1999/xlink" contentStyleType="text/css" data-diagram-type="CLASS" height="743px" preserveAspectRatio="none" style="width:1227px;height:743px;background:#DDDDDD;" version="1.1" viewBox="0 0 1227 743" width="1227px" zoomAndPan="magnify"><title>Generate code from SQL</title><defs/><g><rect fill="#DDDDDD" height="743" style="stroke:none;stroke-width:1;" width="1227" x="0" y="0"/><g class="title" data-source-line="2"><text fill="#000000" font-family="sans-serif" font-size="14" font-weight="bold" lengthAdjust="spacing" textLength="193.1494" x="510.0352" y="22.9951">Generate code from SQL</text></g><!--class SqlToCodeRequest--><g class="entity" data-entity="SqlToCodeRequest" data-source-line="4" data-uid="ent0002" id="entity_SqlToCodeRequest"><rect fill="#F1F1F1" height="64.2969" rx="3.5" ry="3.5" style="stroke:#181818;stroke-width:0.5;" width="164.1182" x="149.5" y="382.7969"/><ellipse cx="164.5" cy="398.7969" fill="#ADD1B2" rx="11" ry="11" style="stroke:#181818;stroke-width:1;"/><path d="M167.4688,404.4375 Q166.8906,404.7344 166.25,404.875 Q165.6094,405.0313 164.9063,405.0313 Q162.4063,405.0313 161.0781,403.3906 Q159.7656,401.7344 159.7656,398.6094 Q159.7656,395.4844 161.0781,393.8281 Q162.4063,392.1719 164.9063,392.1719 Q165.6094,392.1719 166.25,392.3281 Q166.9063,392.4844 167.4688,392.7813 L167.4688,395.5 Q166.8438,394.9219 166.25,394.6563 Q165.6563,394.375 165.0313,394.375 Q163.6875,394.375 163,395.4531 Q162.3125,396.5156 162.3125,398.6094 Q162.3125,400.7031 163,401.7813 Q163.6875,402.8438 165.0313,402.8438 Q165.6563,402.8438 166.25,402.5781 Q166.8438,402.2969 167.4688,401.7188 L167.4688,404.4375 Z " fill="#000000"/><text fill="#000000" font-family="sans-serif" font-size="14" lengthAdjust="spacing" textLength="132.1182" x="178.5" y="403.6436">SqlToCodeRequest</text><line style="stroke:#181818;stroke-width:0.5;" x1="150.5" x2="312.6182" y1="414.7969" y2="414.7969"/><rect fill="none" height="6" style="stroke:#C82930;stroke-width:1;" width="6" x="157.5" y="425.4453"/><text fill="#000000" font-family="sans-serif" font-size="14" lengthAdjust="spacing" textLength="75.4688" x="169.5" y="431.792">String : sql</text><line style="stroke:#181818;stroke-width:0.5;" x1="150.5" x2="312.6182" y1="439.0938" y2="439.0938"/></g><!--class Controller--><g class="entity" data-entity="Controller" data-source-line="4" data-uid="ent0003" id="entity_Controller"><rect fill="#F1F1F1" height="64.2969" rx="3.5" ry="3.5" style="stroke:#181818;stroke-width:0.5;" width="448.6113" x="7" y="531.7969"/><ellipse cx="192.4692" cy="547.7969" fill="#ADD1B2" rx="11" ry="11" style="stroke:#181818;stroke-width:1;"/><path d="M195.438,553.4375 Q194.8599,553.7344 194.2192,553.875 Q193.5786,554.0313 192.8755,554.0313 Q190.3755,554.0313 189.0474,552.3906 Q187.7349,550.7344 187.7349,547.6094 Q187.7349,544.4844 189.0474,542.8281 Q190.3755,541.1719 192.8755,541.1719 Q193.5786,541.1719 194.2192,541.3281 Q194.8755,541.4844 195.438,541.7813 L195.438,544.5 Q194.813,543.9219 194.2192,543.6563 Q193.6255,543.375 193.0005,543.375 Q191.6567,543.375 190.9692,544.4531 Q190.2817,545.5156 190.2817,547.6094 Q190.2817,549.7031 190.9692,550.7813 Q191.6567,551.8438 193.0005,551.8438 Q193.6255,551.8438 194.2192,551.5781 Q194.813,551.2969 195.438,550.7188 L195.438,553.4375 Z " fill="#000000"/><text fill="#000000" font-family="sans-serif" font-size="14" lengthAdjust="spacing" textLength="69.1729" x="212.9692" y="552.6436">Controller</text><line style="stroke:#181818;stroke-width:0.5;" x1="8" x2="454.6113" y1="563.7969" y2="563.7969"/><line style="stroke:#181818;stroke-width:0.5;" x1="8" x2="454.6113" y1="571.7969" y2="571.7969"/><ellipse cx="18" cy="585.4453" fill="#84BE84" rx="3" ry="3" style="stroke:#038048;stroke-width:1;"/><text fill="#000000" font-family="sans-serif" font-size="14" lengthAdjust="spacing" textLength="422.6113" x="27" y="588.792">GeneratedCodeDto : sqlToCode(SqlToCodeRequest request)</text></g><!--class ParserService--><g class="entity" data-entity="ParserService" data-source-line="5" data-uid="ent0005" id="entity_ParserService"><rect fill="#F1F1F1" height="64.2969" rx="3.5" ry="3.5" style="stroke:#181818;stroke-width:0.5;" width="436.375" x="388.5" y="672.2969"/><ellipse cx="554.3467" cy="688.2969" fill="#ADD1B2" rx="11" ry="11" style="stroke:#181818;stroke-width:1;"/><path d="M557.3154,693.9375 Q556.7373,694.2344 556.0967,694.375 Q555.4561,694.5313 554.7529,694.5313 Q552.2529,694.5313 550.9248,692.8906 Q549.6123,691.2344 549.6123,688.1094 Q549.6123,684.9844 550.9248,683.3281 Q552.2529,681.6719 554.7529,681.6719 Q555.4561,681.6719 556.0967,681.8281 Q556.7529,681.9844 557.3154,682.2813 L557.3154,685 Q556.6904,684.4219 556.0967,684.1563 Q555.5029,683.875 554.8779,683.875 Q553.5342,683.875 552.8467,684.9531 Q552.1592,686.0156 552.1592,688.1094 Q552.1592,690.2031 552.8467,691.2813 Q553.5342,692.3438 554.8779,692.3438 Q555.5029,692.3438 556.0967,692.0781 Q556.6904,691.7969 557.3154,691.2188 L557.3154,693.9375 Z " fill="#000000"/><text fill="#000000" font-family="sans-serif" font-size="14" lengthAdjust="spacing" textLength="96.1816" x="574.8467" y="693.1436">ParserService</text><line style="stroke:#181818;stroke-width:0.5;" x1="389.5" x2="823.875" y1="704.2969" y2="704.2969"/><line style="stroke:#181818;stroke-width:0.5;" x1="389.5" x2="823.875" y1="712.2969" y2="712.2969"/><ellipse cx="399.5" cy="725.9453" fill="#84BE84" rx="3" ry="3" style="stroke:#038048;stroke-width:1;"/><text fill="#000000" font-family="sans-serif" font-size="14" lengthAdjust="spacing" textLength="410.375" x="408.5" y="729.292">GeneratedCodeDto : parseSql(SqlToCodeRequest request)</text></g><!--class GeneratedCodeDto--><g class="entity" data-entity="GeneratedCodeDto" data-source-line="6" data-uid="ent0007" id="entity_GeneratedCodeDto"><rect fill="#F1F1F1" height="64.2969" rx="3.5" ry="3.5" style="stroke:#181818;stroke-width:0.5;" width="231.4268" x="491" y="531.7969"/><ellipse cx="535.0153" cy="547.7969" fill="#ADD1B2" rx="11" ry="11" style="stroke:#181818;stroke-width:1;"/><path d="M537.9841,553.4375 Q537.406,553.7344 536.7653,553.875 Q536.1247,554.0313 535.4216,554.0313 Q532.9216,554.0313 531.5935,552.3906 Q530.281,550.7344 530.281,547.6094 Q530.281,544.4844 531.5935,542.8281 Q532.9216,541.1719 535.4216,541.1719 Q536.1247,541.1719 536.7653,541.3281 Q537.4216,541.4844 537.9841,541.7813 L537.9841,544.5 Q537.3591,543.9219 536.7653,543.6563 Q536.1716,543.375 535.5466,543.375 Q534.2028,543.375 533.5153,544.4531 Q532.8278,545.5156 532.8278,547.6094 Q532.8278,549.7031 533.5153,550.7813 Q534.2028,551.8438 535.5466,551.8438 Q536.1716,551.8438 536.7653,551.5781 Q537.3591,551.2969 537.9841,550.7188 L537.9841,553.4375 Z " fill="#000000"/><text fill="#000000" font-family="sans-serif" font-size="14" lengthAdjust="spacing" textLength="134.9482" x="555.4632" y="552.6436">GeneratedCodeDto</text><line style="stroke:#181818;stroke-width:0.5;" x1="492" x2="721.4268" y1="563.7969" y2="563.7969"/><rect fill="none" height="6" style="stroke:#C82930;stroke-width:1;" width="6" x="499" y="574.4453"/><text fill="#000000" font-family="sans-serif" font-size="14" lengthAdjust="spacing" textLength="205.4268" x="511" y="580.792">List&lt;GeneratedCode&gt; : code</text><line style="stroke:#181818;stroke-width:0.5;" x1="492" x2="721.4268" y1="588.0938" y2="588.0938"/></g><!--class TableRelationshipGraph--><g class="entity" data-entity="TableRelationshipGraph" data-source-line="7" data-uid="ent0009" id="entity_TableRelationshipGraph"><rect fill="#F1F1F1" height="96.8906" rx="3.5" ry="3.5" style="stroke:#181818;stroke-width:0.5;" width="463.2197" x="757" y="515.2969"/><ellipse cx="900.3428" cy="531.2969" fill="#ADD1B2" rx="11" ry="11" style="stroke:#181818;stroke-width:1;"/><path d="M903.3115,536.9375 Q902.7334,537.2344 902.0928,537.375 Q901.4521,537.5313 900.749,537.5313 Q898.249,537.5313 896.9209,535.8906 Q895.6084,534.2344 895.6084,531.1094 Q895.6084,527.9844 896.9209,526.3281 Q898.249,524.6719 900.749,524.6719 Q901.4521,524.6719 902.0928,524.8281 Q902.749,524.9844 903.3115,525.2813 L903.3115,528 Q902.6865,527.4219 902.0928,527.1563 Q901.499,526.875 900.874,526.875 Q899.5303,526.875 898.8428,527.9531 Q898.1553,529.0156 898.1553,531.1094 Q898.1553,533.2031 898.8428,534.2813 Q899.5303,535.3438 900.874,535.3438 Q901.499,535.3438 902.0928,535.0781 Q902.6865,534.7969 903.3115,534.2188 L903.3115,536.9375 Z " fill="#000000"/><text fill="#000000" font-family="sans-serif" font-size="14" lengthAdjust="spacing" textLength="168.0342" x="920.8428" y="536.1436">TableRelationshipGraph</text><line style="stroke:#181818;stroke-width:0.5;" x1="758" x2="1219.2197" y1="547.2969" y2="547.2969"/><rect fill="none" height="6" style="stroke:#C82930;stroke-width:1;" width="6" x="765" y="557.9453"/><text fill="#000000" font-family="sans-serif" font-size="14" lengthAdjust="spacing" textLength="215.8994" x="777" y="564.292">List&lt;TableNode&gt; : tableNodes</text><line style="stroke:#181818;stroke-width:0.5;" x1="758" x2="1219.2197" y1="571.5938" y2="571.5938"/><ellipse cx="768" cy="585.2422" fill="#84BE84" rx="3" ry="3" style="stroke:#038048;stroke-width:1;"/><text fill="#000000" font-family="sans-serif" font-size="14" lengthAdjust="spacing" text-decoration="underline" textLength="437.2197" x="777" y="588.5889">TableRelationshipGraph : fromSql(SqlToCodeRequest request)</text><ellipse cx="768" cy="601.5391" fill="#84BE84" rx="3" ry="3" style="stroke:#038048;stroke-width:1;"/><text fill="#000000" font-family="sans-serif" font-size="14" lengthAdjust="spacing" textLength="258.7539" x="777" y="604.8857">GeneratedCodeDto : generateCode()</text></g><!--class TableNode--><g class="entity" data-entity="TableNode" data-source-line="8" data-uid="ent0011" id="entity_TableNode"><rect fill="#F1F1F1" height="80.5938" rx="3.5" ry="3.5" style="stroke:#181818;stroke-width:0.5;" width="273.0713" x="852" y="374.2969"/><ellipse cx="946.7563" cy="390.2969" fill="#ADD1B2" rx="11" ry="11" style="stroke:#181818;stroke-width:1;"/><path d="M949.7251,395.9375 Q949.147,396.2344 948.5063,396.375 Q947.8657,396.5313 947.1626,396.5313 Q944.6626,396.5313 943.3345,394.8906 Q942.022,393.2344 942.022,390.1094 Q942.022,386.9844 943.3345,385.3281 Q944.6626,383.6719 947.1626,383.6719 Q947.8657,383.6719 948.5063,383.8281 Q949.1626,383.9844 949.7251,384.2813 L949.7251,387 Q949.1001,386.4219 948.5063,386.1563 Q947.9126,385.875 947.2876,385.875 Q945.9438,385.875 945.2563,386.9531 Q944.5688,388.0156 944.5688,390.1094 Q944.5688,392.2031 945.2563,393.2813 Q945.9438,394.3438 947.2876,394.3438 Q947.9126,394.3438 948.5063,394.0781 Q949.1001,393.7969 949.7251,393.2188 L949.7251,395.9375 Z " fill="#000000"/><text fill="#000000" font-family="sans-serif" font-size="14" lengthAdjust="spacing" textLength="75.0586" x="967.2563" y="395.1436">TableNode</text><line style="stroke:#181818;stroke-width:0.5;" x1="853" x2="1124.0713" y1="406.2969" y2="406.2969"/><rect fill="none" height="6" style="stroke:#C82930;stroke-width:1;" width="6" x="860" y="416.9453"/><text fill="#000000" font-family="sans-serif" font-size="14" lengthAdjust="spacing" textLength="132.1592" x="872" y="423.292">String : tableName</text><rect fill="none" height="6" style="stroke:#C82930;stroke-width:1;" width="6" x="860" y="433.2422"/><text fill="#000000" font-family="sans-serif" font-size="14" lengthAdjust="spacing" textLength="247.0713" x="872" y="439.5889">List&lt;ColumnNode&gt; : columnNodes</text><line style="stroke:#181818;stroke-width:0.5;" x1="853" x2="1124.0713" y1="446.8906" y2="446.8906"/></g><!--class ColumnNode--><g class="entity" data-entity="ColumnNode" data-source-line="9" data-uid="ent0013" id="entity_ColumnNode"><rect fill="#F1F1F1" height="96.8906" rx="3.5" ry="3.5" style="stroke:#181818;stroke-width:0.5;" width="213.4414" x="882" y="217.2969"/><ellipse cx="939.3945" cy="233.2969" fill="#ADD1B2" rx="11" ry="11" style="stroke:#181818;stroke-width:1;"/><path d="M942.3633,238.9375 Q941.7852,239.2344 941.1445,239.375 Q940.5039,239.5313 939.8008,239.5313 Q937.3008,239.5313 935.9727,237.8906 Q934.6602,236.2344 934.6602,233.1094 Q934.6602,229.9844 935.9727,228.3281 Q937.3008,226.6719 939.8008,226.6719 Q940.5039,226.6719 941.1445,226.8281 Q941.8008,226.9844 942.3633,227.2813 L942.3633,230 Q941.7383,229.4219 941.1445,229.1563 Q940.5508,228.875 939.9258,228.875 Q938.582,228.875 937.8945,229.9531 Q937.207,231.0156 937.207,233.1094 Q937.207,235.2031 937.8945,236.2813 Q938.582,237.3438 939.9258,237.3438 Q940.5508,237.3438 941.1445,237.0781 Q941.7383,236.7969 942.3633,236.2188 L942.3633,238.9375 Z " fill="#000000"/><text fill="#000000" font-family="sans-serif" font-size="14" lengthAdjust="spacing" textLength="90.1523" x="959.8945" y="238.1436">ColumnNode</text><line style="stroke:#181818;stroke-width:0.5;" x1="883" x2="1094.4414" y1="249.2969" y2="249.2969"/><rect fill="none" height="6" style="stroke:#C82930;stroke-width:1;" width="6" x="890" y="259.9453"/><text fill="#000000" font-family="sans-serif" font-size="14" lengthAdjust="spacing" textLength="148.2373" x="902" y="266.292">String : columnName</text><rect fill="none" height="6" style="stroke:#C82930;stroke-width:1;" width="6" x="890" y="276.2422"/><text fill="#000000" font-family="sans-serif" font-size="14" lengthAdjust="spacing" textLength="187.4414" x="902" y="282.5889">ColumnType : columnType</text><rect fill="none" height="6" style="stroke:#C82930;stroke-width:1;" width="6" x="890" y="292.5391"/><text fill="#000000" font-family="sans-serif" font-size="14" lengthAdjust="spacing" textLength="67.7236" x="902" y="298.8857">bool : isId</text><line style="stroke:#181818;stroke-width:0.5;" x1="883" x2="1094.4414" y1="306.1875" y2="306.1875"/></g><!--class ColumnType--><g class="entity" data-entity="ColumnType" data-source-line="10" data-uid="ent0015" id="entity_ColumnType"><rect fill="#F1F1F1" height="113.1875" rx="3.5" ry="3.5" style="stroke:#181818;stroke-width:0.5;" width="119.9512" x="928.5" y="44.2969"/><ellipse cx="943.5" cy="60.2969" fill="#EB937F" rx="11" ry="11" style="stroke:#181818;stroke-width:1;"/><path d="M947.6094,66.2969 L939.8906,66.2969 L939.8906,53.9063 L947.6094,53.9063 L947.6094,56.0625 L942.3438,56.0625 L942.3438,58.7344 L947.1094,58.7344 L947.1094,60.8906 L942.3438,60.8906 L942.3438,64.1406 L947.6094,64.1406 L947.6094,66.2969 Z " fill="#000000"/><text fill="#000000" font-family="sans-serif" font-size="14" lengthAdjust="spacing" textLength="87.9512" x="957.5" y="65.1436">ColumnType</text><line style="stroke:#181818;stroke-width:0.5;" x1="929.5" x2="1047.4512" y1="76.2969" y2="76.2969"/><text fill="#000000" font-family="sans-serif" font-size="14" lengthAdjust="spacing" textLength="72.9395" x="934.5" y="93.292">VARCHAR,</text><text fill="#000000" font-family="sans-serif" font-size="14" lengthAdjust="spacing" textLength="27.6035" x="934.5" y="109.5889">INT,</text><text fill="#000000" font-family="sans-serif" font-size="14" lengthAdjust="spacing" textLength="39.8535" x="934.5" y="125.8857">UUID,</text><text fill="#000000" font-family="sans-serif" font-size="14" lengthAdjust="spacing" textLength="13.3506" x="934.5" y="142.1826">...</text><line style="stroke:#181818;stroke-width:0.5;" x1="929.5" x2="1047.4512" y1="149.4844" y2="149.4844"/></g><!--class GeneratedCode--><g class="entity" data-entity="GeneratedCode" data-source-line="11" data-uid="ent0017" id="entity_GeneratedCode"><rect fill="#F1F1F1" height="80.5938" rx="3.5" ry="3.5" style="stroke:#181818;stroke-width:0.5;" width="152.499" x="530.5" y="374.2969"/><ellipse cx="550.1736" cy="390.2969" fill="#ADD1B2" rx="11" ry="11" style="stroke:#181818;stroke-width:1;"/><path d="M553.1423,395.9375 Q552.5642,396.2344 551.9236,396.375 Q551.283,396.5313 550.5798,396.5313 Q548.0798,396.5313 546.7517,394.8906 Q545.4392,393.2344 545.4392,390.1094 Q545.4392,386.9844 546.7517,385.3281 Q548.0798,383.6719 550.5798,383.6719 Q551.283,383.6719 551.9236,383.8281 Q552.5798,383.9844 553.1423,384.2813 L553.1423,387 Q552.5173,386.4219 551.9236,386.1563 Q551.3298,385.875 550.7048,385.875 Q549.3611,385.875 548.6736,386.9531 Q547.9861,388.0156 547.9861,390.1094 Q547.9861,392.2031 548.6736,393.2813 Q549.3611,394.3438 550.7048,394.3438 Q551.3298,394.3438 551.9236,394.0781 Q552.5173,393.7969 553.1423,393.2188 L553.1423,395.9375 Z " fill="#000000"/><text fill="#000000" font-family="sans-serif" font-size="14" lengthAdjust="spacing" textLength="110.1133" x="565.2122" y="395.1436">GeneratedCode</text><line style="stroke:#181818;stroke-width:0.5;" x1="531.5" x2="681.999" y1="406.2969" y2="406.2969"/><rect fill="none" height="6" style="stroke:#C82930;stroke-width:1;" width="6" x="538.5" y="416.9453"/><text fill="#000000" font-family="sans-serif" font-size="14" lengthAdjust="spacing" textLength="96.0381" x="550.5" y="423.292">String : entity</text><rect fill="none" height="6" style="stroke:#C82930;stroke-width:1;" width="6" x="538.5" y="433.2422"/><text fill="#000000" font-family="sans-serif" font-size="14" lengthAdjust="spacing" textLength="126.499" x="550.5" y="439.5889">String : repository</text><line style="stroke:#181818;stroke-width:0.5;" x1="531.5" x2="681.999" y1="446.8906" y2="446.8906"/></g><!--reverse link SqlToCodeRequest to Controller--><g class="link" data-entity-1="SqlToCodeRequest" data-entity-2="Controller" data-source-line="4" data-uid="lnk4" id="link_SqlToCodeRequest_Controller"><path codeLine="4" d="M231.5,458.9669 C231.5,483.9169 231.5,506.7369 231.5,531.6669" fill="none" id="SqlToCodeRequest-backto-Controller" style="stroke:#454645;stroke-width:1;"/><polygon fill="none" points="231.5,446.9669,227.5,452.9669,231.5,458.9669,235.5,452.9669,231.5,446.9669" style="stroke:#454645;stroke-width:1;"/></g><!--link Controller to ParserService--><g class="link" data-entity-1="Controller" data-entity-2="ParserService" data-source-line="5" data-uid="lnk6" id="link_Controller_ParserService"><path codeLine="5" d="M315.66,595.8769 C377.31,618.6469 455.0115,647.3484 516.6715,670.1184" fill="none" id="Controller-to-ParserService" style="stroke:#454645;stroke-width:1;"/><polygon fill="#454645" points="522.3,672.1969,515.2429,665.3268,517.6096,670.4648,512.4716,672.8314,522.3,672.1969" style="stroke:#454645;stroke-width:1;"/></g><!--reverse link GeneratedCodeDto to ParserService--><g class="link" data-entity-1="GeneratedCodeDto" data-entity-2="ParserService" data-source-line="6" data-uid="lnk8" id="link_GeneratedCodeDto_ParserService"><path codeLine="6" d="M606.5,607.8769 C606.5,630.5269 606.5,649.1069 606.5,671.8369" fill="none" id="GeneratedCodeDto-backto-ParserService" style="stroke:#454645;stroke-width:1;"/><polygon fill="none" points="606.5,595.8769,602.5,601.8769,606.5,607.8769,610.5,601.8769,606.5,595.8769" style="stroke:#454645;stroke-width:1;"/></g><!--reverse link TableRelationshipGraph to ParserService--><g class="link" data-entity-1="TableRelationshipGraph" data-entity-2="ParserService" data-source-line="7" data-uid="lnk10" id="link_TableRelationshipGraph_ParserService"><path codeLine="7" d="M846.0184,616.4565 C791.3984,636.2565 740.8,654.6069 692.17,672.2369" fill="none" id="TableRelationshipGraph-backto-ParserService" style="stroke:#454645;stroke-width:1;"/><polygon fill="#454645" points="857.3,612.3669,850.296,610.6512,846.0184,616.4565,853.0224,618.1722,857.3,612.3669" style="stroke:#454645;stroke-width:1;"/></g><!--reverse link TableNode to TableRelationshipGraph--><g class="link" data-entity-1="TableNode" data-entity-2="TableRelationshipGraph" data-source-line="8" data-uid="lnk12" id="link_TableNode_TableRelationshipGraph"><path codeLine="8" d="M988.5,467.5769 C988.5,485.9469 988.5,495.8969 988.5,515.1369" fill="none" id="TableNode-backto-TableRelationshipGraph" style="stroke:#454645;stroke-width:1;"/><polygon fill="#454645" points="988.5,455.5769,984.5,461.5769,988.5,467.5769,992.5,461.5769,988.5,455.5769" style="stroke:#454645;stroke-width:1;"/></g><!--reverse link ColumnNode to TableNode--><g class="link" data-entity-1="ColumnNode" data-entity-2="TableNode" data-source-line="9" data-uid="lnk14" id="link_ColumnNode_TableNode"><path codeLine="9" d="M988.5,326.5269 C988.5,345.8069 988.5,355.7969 988.5,374.1769" fill="none" id="ColumnNode-backto-TableNode" style="stroke:#454645;stroke-width:1;"/><polygon fill="#454645" points="988.5,314.5269,984.5,320.5269,988.5,326.5269,992.5,320.5269,988.5,314.5269" style="stroke:#454645;stroke-width:1;"/></g><!--reverse link ColumnType to ColumnNode--><g class="link" data-entity-1="ColumnType" data-entity-2="ColumnNode" data-source-line="10" data-uid="lnk16" id="link_ColumnType_ColumnNode"><path codeLine="10" d="M988.5,169.4369 C988.5,188.8969 988.5,198.5469 988.5,217.2869" fill="none" id="ColumnType-backto-ColumnNode" style="stroke:#454645;stroke-width:1;"/><polygon fill="#454645" points="988.5,157.4369,984.5,163.4369,988.5,169.4369,992.5,163.4369,988.5,157.4369" style="stroke:#454645;stroke-width:1;"/></g><!--reverse link GeneratedCode to GeneratedCodeDto--><g class="link" data-entity-1="GeneratedCode" data-entity-2="GeneratedCodeDto" data-source-line="11" data-uid="lnk18" id="link_GeneratedCode_GeneratedCodeDto"><path codeLine="11" d="M606.5,467.5769 C606.5,491.3869 606.5,509.2169 606.5,531.3669" fill="none" id="GeneratedCode-backto-GeneratedCodeDto" style="stroke:#454645;stroke-width:1;"/><polygon fill="#454645" points="606.5,455.5769,602.5,461.5769,606.5,467.5769,610.5,461.5769,606.5,455.5769" style="stroke:#454645;stroke-width:1;"/></g><!--SRC=[ZLHDRwCm4BtxLtXFtI_IUrLL8WbAaI1fmLdjzaR9j44ocDfEfIZAVwy_S0qagVRacNdFRnupJhx9BTI09TiZMKaAU04Dy482Bja6y0jdDSuV4uJoDqhOJDKoUDk1a9W50PwnHd96AN3aGnm4T_YXu09u3lozAW4vqOqMc4jcBWyff7YcIfiMicADs5RjWXVj5lyyJrngSnexVqsveRkw6R9qrW5atrh0yuOU3JXsZL192o5wNuqF2EDV9qHyWuKRr_UJmN5x_a179tX2qR81pYMlcbShvic3QLmsq6gQ4lwV_XTcRrqabP2tdmEyKzBI9S8qFmYfBfR7Ip8tvXLzRUN2Hxns9JF8iM6ptT6ahBMY1c_ThrXxBpypuULwhsMarz6TOE_rE4md1djcZAfg9UADLePcL_Vv1tHzfNZJU14loMyRvL4MXubDJErFc7NHTBKomEm-p3h4XVEGHEPShQU9YPHYj8WCcAwMqJyTBDUfKf_fC8jiapmDawJhRcBVtqSa-ci894uZTv8d5-KaJ1y6YSNMwtYkZglheTMkcKRrEPbC_D1FrjrxRWFChatzGizV7QyC6lL7jX_MEBHCL9BnFJf-0000]--></g></svg>