<svg xmlns="http://www.w3.org/2000/svg" xmlns:xlink="http://www.w3.org/1999/xlink" contentStyleType="text/css" data-diagram-type="ACTIVITY" height="931px" preserveAspectRatio="none" style="width:496px;height:931px;background:#DDDDDD;" version="1.1" viewBox="0 0 496 931" width="496px" zoomAndPan="magnify"><title>Generate code from SQL</title><defs/><g><rect fill="#DDDDDD" height="931" style="stroke:none;stroke-width:1;" width="496" x="0" y="0"/><g class="title" data-source-line="2"><text fill="#000000" font-family="sans-serif" font-size="14" font-weight="bold" lengthAdjust="spacing" textLength="193.1494" x="150.2329" y="32.9951">Generate code from SQL</text></g><ellipse cx="260.2065" cy="57.2969" fill="#222222" rx="10" ry="10" style="stroke:#222222;stroke-width:1;"/><rect fill="#F1F1F1" height="33.9688" rx="3.5" ry="3.5" style="stroke:#181818;stroke-width:0.5;" width="186.8984" x="166.7573" y="87.2969"/><text fill="#000000" font-family="sans-serif" font-size="12" lengthAdjust="spacing" textLength="166.8984" x="176.7573" y="108.4355">Read SQL from request body</text><rect fill="#F1F1F1" height="33.9688" rx="3.5" ry="3.5" style="stroke:#181818;stroke-width:0.5;" width="142.8477" x="188.7827" y="141.2656"/><text fill="#000000" font-family="sans-serif" font-size="12" lengthAdjust="spacing" textLength="122.8477" x="198.7827" y="162.4043">Strip SQL comments</text><rect fill="#F1F1F1" height="33.9688" rx="3.5" ry="3.5" style="stroke:#181818;stroke-width:0.5;" width="234.8691" x="142.772" y="195.2344"/><text fill="#000000" font-family="sans-serif" font-size="12" lengthAdjust="spacing" textLength="214.8691" x="152.772" y="216.373">Split SQL into individual statements</text><rect fill="#F1F1F1" height="33.9688" rx="3.5" ry="3.5" style="stroke:#181818;stroke-width:0.5;" width="80.7207" x="219.8462" y="249.2031"/><text fill="#000000" font-family="sans-serif" font-size="12" lengthAdjust="spacing" textLength="60.7207" x="229.8462" y="270.3418">Parse SQL</text><polygon fill="#F1F1F1" points="233.8936,303.1719,286.5195,303.1719,298.5195,315.1719,286.5195,327.1719,233.8936,327.1719,221.8936,315.1719,233.8936,303.1719" style="stroke:#181818;stroke-width:0.5;"/><text fill="#000000" font-family="sans-serif" font-size="11" lengthAdjust="spacing" textLength="52.626" x="233.8936" y="318.98">Valid SQL</text><text fill="#000000" font-family="sans-serif" font-size="11" lengthAdjust="spacing" textLength="19.0083" x="202.8853" y="312.5776">yes</text><text fill="#000000" font-family="sans-serif" font-size="11" lengthAdjust="spacing" textLength="13.7017" x="298.5195" y="312.5776">no</text><rect fill="#F1F1F1" height="33.9688" rx="3.5" ry="3.5" style="stroke:#181818;stroke-width:0.5;" width="223.8066" x="14.542" y="337.1719"/><text fill="#000000" font-family="sans-serif" font-size="12" lengthAdjust="spacing" textLength="203.8066" x="24.542" y="358.3105">Generate table relationship graph</text><rect fill="#F1F1F1" height="33.9688" rx="3.5" ry="3.5" style="stroke:#181818;stroke-width:0.5;" width="124.9883" x="63.9512" y="435.1406"/><text fill="#000000" font-family="sans-serif" font-size="12" lengthAdjust="spacing" textLength="104.9883" x="73.9512" y="456.2793">Select table node</text><rect fill="#F1F1F1" height="33.9688" rx="3.5" ry="3.5" style="stroke:#181818;stroke-width:0.5;" width="138.7695" x="57.0605" y="533.1094"/><text fill="#000000" font-family="sans-serif" font-size="12" lengthAdjust="spacing" textLength="118.7695" x="67.0605" y="554.248">Select column node</text><rect fill="#F1F1F1" height="33.9688" rx="3.5" ry="3.5" style="stroke:#181818;stroke-width:0.5;" width="215.75" x="18.5703" y="594.5781"/><text fill="#000000" font-family="sans-serif" font-size="12" lengthAdjust="spacing" textLength="195.75" x="28.5703" y="615.7168">Generate column code for entity</text><polygon fill="#F1F1F1" points="126.4453,489.1094,138.4453,501.1094,126.4453,513.1094,114.4453,501.1094,126.4453,489.1094" style="stroke:#181818;stroke-width:0.5;"/><polygon fill="#F1F1F1" points="36.3909,648.5469,216.4998,648.5469,228.4998,660.5469,216.4998,672.5469,36.3909,672.5469,24.3909,660.5469,36.3909,648.5469" style="stroke:#181818;stroke-width:0.5;"/><text fill="#000000" font-family="sans-serif" font-size="11" lengthAdjust="spacing" textLength="180.1089" x="36.3909" y="664.355">There are more columns in table</text><text fill="#000000" font-family="sans-serif" font-size="11" lengthAdjust="spacing" textLength="19.2178" x="228.4998" y="657.9526">Yes</text><rect fill="#F1F1F1" height="33.9688" rx="3.5" ry="3.5" style="stroke:#181818;stroke-width:0.5;" width="183.125" x="34.8828" y="692.5469"/><text fill="#000000" font-family="sans-serif" font-size="12" lengthAdjust="spacing" textLength="163.125" x="44.8828" y="713.6855">Assemble entity class code</text><rect fill="#F1F1F1" height="33.9688" rx="3.5" ry="3.5" style="stroke:#181818;stroke-width:0.5;" width="230.8906" x="11" y="746.5156"/><text fill="#000000" font-family="sans-serif" font-size="12" lengthAdjust="spacing" textLength="210.8906" x="21" y="767.6543">Generate repository interface code</text><polygon fill="#F1F1F1" points="126.4453,391.1406,138.4453,403.1406,126.4453,415.1406,114.4453,403.1406,126.4453,391.1406" style="stroke:#181818;stroke-width:0.5;"/><polygon fill="#F1F1F1" points="40.5374,800.4844,212.3533,800.4844,224.3533,812.4844,212.3533,824.4844,40.5374,824.4844,28.5374,812.4844,40.5374,800.4844" style="stroke:#181818;stroke-width:0.5;"/><text fill="#000000" font-family="sans-serif" font-size="11" lengthAdjust="spacing" textLength="171.8159" x="40.5374" y="816.2925">There are more tables in graph</text><text fill="#000000" font-family="sans-serif" font-size="11" lengthAdjust="spacing" textLength="19.2178" x="224.3533" y="809.8901">Yes</text><rect fill="#F1F1F1" height="33.9688" rx="3.5" ry="3.5" style="stroke:#181818;stroke-width:0.5;" width="199.9766" x="26.457" y="844.4844"/><text fill="#000000" font-family="sans-serif" font-size="12" lengthAdjust="spacing" textLength="179.9766" x="36.457" y="865.623">Respond with generated code</text><rect fill="#F1F1F1" height="33.9688" rx="3.5" ry="3.5" style="stroke:#181818;stroke-width:0.5;" width="183.2949" x="302.3203" y="337.1719"/><text fill="#000000" font-family="sans-serif" font-size="12" lengthAdjust="spacing" textLength="163.2949" x="312.3203" y="358.3105">Respond with parsing error</text><ellipse cx="393.9678" cy="402.1406" fill="none" rx="11" ry="11" style="stroke:#222222;stroke-width:1;"/><ellipse cx="393.9678" cy="402.1406" fill="#222222" rx="6" ry="6" style="stroke:#222222;stroke-width:1;"/><ellipse cx="260.2065" cy="909.4531" fill="none" rx="11" ry="11" style="stroke:#222222;stroke-width:1;"/><ellipse cx="260.2065" cy="909.4531" fill="#222222" rx="6" ry="6" style="stroke:#222222;stroke-width:1;"/><line style="stroke:#454645;stroke-width:1;" x1="260.2065" x2="260.2065" y1="67.2969" y2="87.2969"/><polygon fill="#454645" points="256.2065,77.2969,260.2065,87.2969,264.2065,77.2969,260.2065,81.2969" style="stroke:#454645;stroke-width:1;"/><line style="stroke:#454645;stroke-width:1;" x1="260.2065" x2="260.2065" y1="121.2656" y2="141.2656"/><polygon fill="#454645" points="256.2065,131.2656,260.2065,141.2656,264.2065,131.2656,260.2065,135.2656" style="stroke:#454645;stroke-width:1;"/><line style="stroke:#454645;stroke-width:1;" x1="260.2065" x2="260.2065" y1="175.2344" y2="195.2344"/><polygon fill="#454645" points="256.2065,185.2344,260.2065,195.2344,264.2065,185.2344,260.2065,189.2344" style="stroke:#454645;stroke-width:1;"/><line style="stroke:#454645;stroke-width:1;" x1="260.2065" x2="260.2065" y1="229.2031" y2="249.2031"/><polygon fill="#454645" points="256.2065,239.2031,260.2065,249.2031,264.2065,239.2031,260.2065,243.2031" style="stroke:#454645;stroke-width:1;"/><line style="stroke:#454645;stroke-width:1;" x1="126.4453" x2="126.4453" y1="567.0781" y2="594.5781"/><polygon fill="#454645" points="122.4453,584.5781,126.4453,594.5781,130.4453,584.5781,126.4453,588.5781" style="stroke:#454645;stroke-width:1;"/><line style="stroke:#454645;stroke-width:1;" x1="126.4453" x2="126.4453" y1="513.1094" y2="533.1094"/><polygon fill="#454645" points="122.4453,523.1094,126.4453,533.1094,130.4453,523.1094,126.4453,527.1094" style="stroke:#454645;stroke-width:1;"/><line style="stroke:#454645;stroke-width:1;" x1="228.4998" x2="246.3203" y1="660.5469" y2="660.5469"/><polygon fill="#454645" points="242.3203,587.0781,246.3203,577.0781,250.3203,587.0781,246.3203,583.0781" style="stroke:#454645;stroke-width:1;"/><line style="stroke:#454645;stroke-width:1;" x1="246.3203" x2="246.3203" y1="501.1094" y2="660.5469"/><line style="stroke:#454645;stroke-width:1;" x1="246.3203" x2="138.4453" y1="501.1094" y2="501.1094"/><polygon fill="#454645" points="148.4453,497.1094,138.4453,501.1094,148.4453,505.1094,144.4453,501.1094" style="stroke:#454645;stroke-width:1;"/><line style="stroke:#454645;stroke-width:1;" x1="126.4453" x2="126.4453" y1="628.5469" y2="648.5469"/><polygon fill="#454645" points="122.4453,638.5469,126.4453,648.5469,130.4453,638.5469,126.4453,642.5469" style="stroke:#454645;stroke-width:1;"/><line style="stroke:#454645;stroke-width:1;" x1="126.4453" x2="126.4453" y1="469.1094" y2="489.1094"/><polygon fill="#454645" points="122.4453,479.1094,126.4453,489.1094,130.4453,479.1094,126.4453,483.1094" style="stroke:#454645;stroke-width:1;"/><line style="stroke:#454645;stroke-width:1;" x1="126.4453" x2="126.4453" y1="672.5469" y2="692.5469"/><polygon fill="#454645" points="122.4453,682.5469,126.4453,692.5469,130.4453,682.5469,126.4453,686.5469" style="stroke:#454645;stroke-width:1;"/><line style="stroke:#454645;stroke-width:1;" x1="126.4453" x2="126.4453" y1="726.5156" y2="746.5156"/><polygon fill="#454645" points="122.4453,736.5156,126.4453,746.5156,130.4453,736.5156,126.4453,740.5156" style="stroke:#454645;stroke-width:1;"/><line style="stroke:#454645;stroke-width:1;" x1="126.4453" x2="126.4453" y1="415.1406" y2="435.1406"/><polygon fill="#454645" points="122.4453,425.1406,126.4453,435.1406,130.4453,425.1406,126.4453,429.1406" style="stroke:#454645;stroke-width:1;"/><line style="stroke:#454645;stroke-width:1;" x1="224.3533" x2="270.3203" y1="812.4844" y2="812.4844"/><polygon fill="#454645" points="266.3203,621.5625,270.3203,611.5625,274.3203,621.5625,270.3203,617.5625" style="stroke:#454645;stroke-width:1;"/><line style="stroke:#454645;stroke-width:1;" x1="270.3203" x2="270.3203" y1="403.1406" y2="812.4844"/><line style="stroke:#454645;stroke-width:1;" x1="270.3203" x2="138.4453" y1="403.1406" y2="403.1406"/><polygon fill="#454645" points="148.4453,399.1406,138.4453,403.1406,148.4453,407.1406,144.4453,403.1406" style="stroke:#454645;stroke-width:1;"/><line style="stroke:#454645;stroke-width:1;" x1="126.4453" x2="126.4453" y1="780.4844" y2="800.4844"/><polygon fill="#454645" points="122.4453,790.4844,126.4453,800.4844,130.4453,790.4844,126.4453,794.4844" style="stroke:#454645;stroke-width:1;"/><line style="stroke:#454645;stroke-width:1;" x1="126.4453" x2="126.4453" y1="371.1406" y2="391.1406"/><polygon fill="#454645" points="122.4453,381.1406,126.4453,391.1406,130.4453,381.1406,126.4453,385.1406" style="stroke:#454645;stroke-width:1;"/><line style="stroke:#454645;stroke-width:1;" x1="126.4453" x2="126.4453" y1="824.4844" y2="844.4844"/><polygon fill="#454645" points="122.4453,834.4844,126.4453,844.4844,130.4453,834.4844,126.4453,838.4844" style="stroke:#454645;stroke-width:1;"/><line style="stroke:#454645;stroke-width:1;" x1="393.9678" x2="393.9678" y1="371.1406" y2="391.1406"/><polygon fill="#454645" points="389.9678,381.1406,393.9678,391.1406,397.9678,381.1406,393.9678,385.1406" style="stroke:#454645;stroke-width:1;"/><line style="stroke:#454645;stroke-width:1;" x1="221.8936" x2="126.4453" y1="315.1719" y2="315.1719"/><line style="stroke:#454645;stroke-width:1;" x1="126.4453" x2="126.4453" y1="315.1719" y2="337.1719"/><polygon fill="#454645" points="122.4453,327.1719,126.4453,337.1719,130.4453,327.1719,126.4453,331.1719" style="stroke:#454645;stroke-width:1;"/><line style="stroke:#454645;stroke-width:1;" x1="298.5195" x2="393.9678" y1="315.1719" y2="315.1719"/><line style="stroke:#454645;stroke-width:1;" x1="393.9678" x2="393.9678" y1="315.1719" y2="337.1719"/><polygon fill="#454645" points="389.9678,327.1719,393.9678,337.1719,397.9678,327.1719,393.9678,331.1719" style="stroke:#454645;stroke-width:1;"/><line style="stroke:#454645;stroke-width:1;" x1="126.4453" x2="126.4453" y1="878.4531" y2="883.4531"/><line style="stroke:#454645;stroke-width:1;" x1="126.4453" x2="260.2065" y1="883.4531" y2="883.4531"/><line style="stroke:#454645;stroke-width:1;" x1="260.2065" x2="260.2065" y1="883.4531" y2="898.4531"/><polygon fill="#454645" points="256.2065,888.4531,260.2065,898.4531,264.2065,888.4531,260.2065,892.4531" style="stroke:#454645;stroke-width:1;"/><line style="stroke:#454645;stroke-width:1;" x1="260.2065" x2="260.2065" y1="283.1719" y2="303.1719"/><polygon fill="#454645" points="256.2065,293.1719,260.2065,303.1719,264.2065,293.1719,260.2065,297.1719" style="stroke:#454645;stroke-width:1;"/><!--SRC=[VPB1JiCm38RlUGfpwrvXFN7YmW4OGkAODUuQAOqpssFgs-EqtIX2uj2gSNxx_sptGGSS4PGcfr4JmXDcPAy87GM4dcc4m-kpSwAUrUtVq0UGSrfk6CyN58KZXQbr-uDoB5LkoUE8MQK6Iuew1sDMibU8Np5SV08hgNYJlNWMhBBMnHwQ3vzYgCST6666PaBPEO3zdK_zqN0PazT8MGPpFh4lGsigne9UxSCI3fYmqrMUhQbsZcyaFwAEqcNC6zNMSBrSva8C1XvrsbQ3wn0JDky3CeAtPoI-vObrla3i80eqdqi_Pl0eWcE5Mmf2bxp8RBFK_Y4m5vAen5ET9NBlExmB_qEOVMU2UKI_26obKYW7k4OTuBHwXRKk9jjAa-clijZ2OZu1CXDN054g3cszVVrRg7m3]--></g></svg>