<svg xmlns="http://www.w3.org/2000/svg" xmlns:xlink="http://www.w3.org/1999/xlink" contentStyleType="text/css" data-diagram-type="CLASS" height="851px" preserveAspectRatio="none" style="width:1742px;height:851px;background:#DDDDDD;" version="1.1" viewBox="0 0 1742 851" width="1742px" zoomAndPan="magnify"><title>Generate code from SQL</title><defs/><g><rect fill="#DDDDDD" height="851" style="stroke:none;stroke-width:1;" width="1742" x="0" y="0"/><g class="title" data-source-line="2"><text fill="#000000" font-family="sans-serif" font-size="14" font-weight="bold" lengthAdjust="spacing" textLength="193.1494" x="767.5352" y="22.9951">Generate code from SQL</text></g><!--class SqlToCodeRequest--><g class="entity" data-entity="SqlToCodeRequest" data-source-line="4" data-uid="ent0002" id="entity_SqlToCodeRequest"><rect fill="#F1F1F1" height="64.2969" rx="3.5" ry="3.5" style="stroke:#181818;stroke-width:0.5;" width="164.1182" x="149.5" y="523.7969"/><ellipse cx="164.5" cy="539.7969" fill="#ADD1B2" rx="11" ry="11" style="stroke:#181818;stroke-width:1;"/><path d="M167.4688,545.4375 Q166.8906,545.7344 166.25,545.875 Q165.6094,546.0313 164.9063,546.0313 Q162.4063,546.0313 161.0781,544.3906 Q159.7656,542.7344 159.7656,539.6094 Q159.7656,536.4844 161.0781,534.8281 Q162.4063,533.1719 164.9063,533.1719 Q165.6094,533.1719 166.25,533.3281 Q166.9063,533.4844 167.4688,533.7813 L167.4688,536.5 Q166.8438,535.9219 166.25,535.6563 Q165.6563,535.375 165.0313,535.375 Q163.6875,535.375 163,536.4531 Q162.3125,537.5156 162.3125,539.6094 Q162.3125,541.7031 163,542.7813 Q163.6875,543.8438 165.0313,543.8438 Q165.6563,543.8438 166.25,543.5781 Q166.8438,543.2969 167.4688,542.7188 L167.4688,545.4375 Z " fill="#000000"/><text fill="#000000" font-family="sans-serif" font-size="14" lengthAdjust="spacing" textLength="132.1182" x="178.5" y="544.6436">SqlToCodeRequest</text><line style="stroke:#181818;stroke-width:0.5;" x1="150.5" x2="312.6182" y1="555.7969" y2="555.7969"/><rect fill="none" height="6" style="stroke:#C82930;stroke-width:1;" width="6" x="157.5" y="566.4453"/><text fill="#000000" font-family="sans-serif" font-size="14" lengthAdjust="spacing" textLength="75.4688" x="169.5" y="572.792">String : sql</text><line style="stroke:#181818;stroke-width:0.5;" x1="150.5" x2="312.6182" y1="580.0938" y2="580.0938"/></g><!--class Controller--><g class="entity" data-entity="Controller" data-source-line="4" data-uid="ent0003" id="entity_Controller"><rect fill="#F1F1F1" height="64.2969" rx="3.5" ry="3.5" style="stroke:#181818;stroke-width:0.5;" width="448.6113" x="7" y="656.2969"/><ellipse cx="192.4692" cy="672.2969" fill="#ADD1B2" rx="11" ry="11" style="stroke:#181818;stroke-width:1;"/><path d="M195.438,677.9375 Q194.8599,678.2344 194.2192,678.375 Q193.5786,678.5313 192.8755,678.5313 Q190.3755,678.5313 189.0474,676.8906 Q187.7349,675.2344 187.7349,672.1094 Q187.7349,668.9844 189.0474,667.3281 Q190.3755,665.6719 192.8755,665.6719 Q193.5786,665.6719 194.2192,665.8281 Q194.8755,665.9844 195.438,666.2813 L195.438,669 Q194.813,668.4219 194.2192,668.1563 Q193.6255,667.875 193.0005,667.875 Q191.6567,667.875 190.9692,668.9531 Q190.2817,670.0156 190.2817,672.1094 Q190.2817,674.2031 190.9692,675.2813 Q191.6567,676.3438 193.0005,676.3438 Q193.6255,676.3438 194.2192,676.0781 Q194.813,675.7969 195.438,675.2188 L195.438,677.9375 Z " fill="#000000"/><text fill="#000000" font-family="sans-serif" font-size="14" lengthAdjust="spacing" textLength="69.1729" x="212.9692" y="677.1436">Controller</text><line style="stroke:#181818;stroke-width:0.5;" x1="8" x2="454.6113" y1="688.2969" y2="688.2969"/><line style="stroke:#181818;stroke-width:0.5;" x1="8" x2="454.6113" y1="696.2969" y2="696.2969"/><ellipse cx="18" cy="709.9453" fill="#84BE84" rx="3" ry="3" style="stroke:#038048;stroke-width:1;"/><text fill="#000000" font-family="sans-serif" font-size="14" lengthAdjust="spacing" textLength="422.6113" x="27" y="713.292">GeneratedCodeDto : sqlToCode(SqlToCodeRequest request)</text></g><!--class ParserService--><g class="entity" data-entity="ParserService" data-source-line="5" data-uid="ent0005" id="entity_ParserService"><rect fill="#F1F1F1" height="64.2969" rx="3.5" ry="3.5" style="stroke:#181818;stroke-width:0.5;" width="436.375" x="491.5" y="656.2969"/><ellipse cx="657.3467" cy="672.2969" fill="#ADD1B2" rx="11" ry="11" style="stroke:#181818;stroke-width:1;"/><path d="M660.3154,677.9375 Q659.7373,678.2344 659.0967,678.375 Q658.4561,678.5313 657.7529,678.5313 Q655.2529,678.5313 653.9248,676.8906 Q652.6123,675.2344 652.6123,672.1094 Q652.6123,668.9844 653.9248,667.3281 Q655.2529,665.6719 657.7529,665.6719 Q658.4561,665.6719 659.0967,665.8281 Q659.7529,665.9844 660.3154,666.2813 L660.3154,669 Q659.6904,668.4219 659.0967,668.1563 Q658.5029,667.875 657.8779,667.875 Q656.5342,667.875 655.8467,668.9531 Q655.1592,670.0156 655.1592,672.1094 Q655.1592,674.2031 655.8467,675.2813 Q656.5342,676.3438 657.8779,676.3438 Q658.5029,676.3438 659.0967,676.0781 Q659.6904,675.7969 660.3154,675.2188 L660.3154,677.9375 Z " fill="#000000"/><text fill="#000000" font-family="sans-serif" font-size="14" lengthAdjust="spacing" textLength="96.1816" x="677.8467" y="677.1436">ParserService</text><line style="stroke:#181818;stroke-width:0.5;" x1="492.5" x2="926.875" y1="688.2969" y2="688.2969"/><line style="stroke:#181818;stroke-width:0.5;" x1="492.5" x2="926.875" y1="696.2969" y2="696.2969"/><ellipse cx="502.5" cy="709.9453" fill="#84BE84" rx="3" ry="3" style="stroke:#038048;stroke-width:1;"/><text fill="#000000" font-family="sans-serif" font-size="14" lengthAdjust="spacing" textLength="410.375" x="511.5" y="713.292">GeneratedCodeDto : parseSql(SqlToCodeRequest request)</text></g><!--class GeneratedCodeDto--><g class="entity" data-entity="GeneratedCodeDto" data-source-line="6" data-uid="ent0007" id="entity_GeneratedCodeDto"><rect fill="#F1F1F1" height="64.2969" rx="3.5" ry="3.5" style="stroke:#181818;stroke-width:0.5;" width="231.4268" x="998" y="523.7969"/><ellipse cx="1042.0153" cy="539.7969" fill="#ADD1B2" rx="11" ry="11" style="stroke:#181818;stroke-width:1;"/><path d="M1044.9841,545.4375 Q1044.406,545.7344 1043.7653,545.875 Q1043.1247,546.0313 1042.4216,546.0313 Q1039.9216,546.0313 1038.5935,544.3906 Q1037.281,542.7344 1037.281,539.6094 Q1037.281,536.4844 1038.5935,534.8281 Q1039.9216,533.1719 1042.4216,533.1719 Q1043.1247,533.1719 1043.7653,533.3281 Q1044.4216,533.4844 1044.9841,533.7813 L1044.9841,536.5 Q1044.3591,535.9219 1043.7653,535.6563 Q1043.1716,535.375 1042.5466,535.375 Q1041.2028,535.375 1040.5153,536.4531 Q1039.8278,537.5156 1039.8278,539.6094 Q1039.8278,541.7031 1040.5153,542.7813 Q1041.2028,543.8438 1042.5466,543.8438 Q1043.1716,543.8438 1043.7653,543.5781 Q1044.3591,543.2969 1044.9841,542.7188 L1044.9841,545.4375 Z " fill="#000000"/><text fill="#000000" font-family="sans-serif" font-size="14" lengthAdjust="spacing" textLength="134.9482" x="1062.4632" y="544.6436">GeneratedCodeDto</text><line style="stroke:#181818;stroke-width:0.5;" x1="999" x2="1228.4268" y1="555.7969" y2="555.7969"/><rect fill="none" height="6" style="stroke:#C82930;stroke-width:1;" width="6" x="1006" y="566.4453"/><text fill="#000000" font-family="sans-serif" font-size="14" lengthAdjust="spacing" textLength="205.4268" x="1018" y="572.792">List&lt;GeneratedCode&gt; : code</text><line style="stroke:#181818;stroke-width:0.5;" x1="999" x2="1228.4268" y1="580.0938" y2="580.0938"/></g><!--class TableRelationshipGraph--><g class="entity" data-entity="TableRelationshipGraph" data-source-line="7" data-uid="ent0009" id="entity_TableRelationshipGraph"><rect fill="#F1F1F1" height="80.5938" rx="3.5" ry="3.5" style="stroke:#181818;stroke-width:0.5;" width="463.2197" x="1272" y="515.2969"/><ellipse cx="1415.3428" cy="531.2969" fill="#ADD1B2" rx="11" ry="11" style="stroke:#181818;stroke-width:1;"/><path d="M1418.3115,536.9375 Q1417.7334,537.2344 1417.0928,537.375 Q1416.4521,537.5313 1415.749,537.5313 Q1413.249,537.5313 1411.9209,535.8906 Q1410.6084,534.2344 1410.6084,531.1094 Q1410.6084,527.9844 1411.9209,526.3281 Q1413.249,524.6719 1415.749,524.6719 Q1416.4521,524.6719 1417.0928,524.8281 Q1417.749,524.9844 1418.3115,525.2813 L1418.3115,528 Q1417.6865,527.4219 1417.0928,527.1563 Q1416.499,526.875 1415.874,526.875 Q1414.5303,526.875 1413.8428,527.9531 Q1413.1553,529.0156 1413.1553,531.1094 Q1413.1553,533.2031 1413.8428,534.2813 Q1414.5303,535.3438 1415.874,535.3438 Q1416.499,535.3438 1417.0928,535.0781 Q1417.6865,534.7969 1418.3115,534.2188 L1418.3115,536.9375 Z " fill="#000000"/><text fill="#000000" font-family="sans-serif" font-size="14" lengthAdjust="spacing" textLength="168.0342" x="1435.8428" y="536.1436">TableRelationshipGraph</text><line style="stroke:#181818;stroke-width:0.5;" x1="1273" x2="1734.2197" y1="547.2969" y2="547.2969"/><rect fill="none" height="6" style="stroke:#C82930;stroke-width:1;" width="6" x="1280" y="557.9453"/><text fill="#000000" font-family="sans-serif" font-size="14" lengthAdjust="spacing" textLength="215.8994" x="1292" y="564.292">List&lt;TableNode&gt; : tableNodes</text><line style="stroke:#181818;stroke-width:0.5;" x1="1273" x2="1734.2197" y1="571.5938" y2="571.5938"/><ellipse cx="1283" cy="585.2422" fill="#84BE84" rx="3" ry="3" style="stroke:#038048;stroke-width:1;"/><text fill="#000000" font-family="sans-serif" font-size="14" lengthAdjust="spacing" text-decoration="underline" textLength="437.2197" x="1292" y="588.5889">TableRelationshipGraph : fromSql(SqlToCodeRequest request)</text></g><!--class TableNode--><g class="entity" data-entity="TableNode" data-source-line="8" data-uid="ent0011" id="entity_TableNode"><rect fill="#F1F1F1" height="80.5938" rx="3.5" ry="3.5" style="stroke:#181818;stroke-width:0.5;" width="273.0713" x="1367" y="374.2969"/><ellipse cx="1461.7563" cy="390.2969" fill="#ADD1B2" rx="11" ry="11" style="stroke:#181818;stroke-width:1;"/><path d="M1464.7251,395.9375 Q1464.147,396.2344 1463.5063,396.375 Q1462.8657,396.5313 1462.1626,396.5313 Q1459.6626,396.5313 1458.3345,394.8906 Q1457.022,393.2344 1457.022,390.1094 Q1457.022,386.9844 1458.3345,385.3281 Q1459.6626,383.6719 1462.1626,383.6719 Q1462.8657,383.6719 1463.5063,383.8281 Q1464.1626,383.9844 1464.7251,384.2813 L1464.7251,387 Q1464.1001,386.4219 1463.5063,386.1563 Q1462.9126,385.875 1462.2876,385.875 Q1460.9438,385.875 1460.2563,386.9531 Q1459.5688,388.0156 1459.5688,390.1094 Q1459.5688,392.2031 1460.2563,393.2813 Q1460.9438,394.3438 1462.2876,394.3438 Q1462.9126,394.3438 1463.5063,394.0781 Q1464.1001,393.7969 1464.7251,393.2188 L1464.7251,395.9375 Z " fill="#000000"/><text fill="#000000" font-family="sans-serif" font-size="14" lengthAdjust="spacing" textLength="75.0586" x="1482.2563" y="395.1436">TableNode</text><line style="stroke:#181818;stroke-width:0.5;" x1="1368" x2="1639.0713" y1="406.2969" y2="406.2969"/><rect fill="none" height="6" style="stroke:#C82930;stroke-width:1;" width="6" x="1375" y="416.9453"/><text fill="#000000" font-family="sans-serif" font-size="14" lengthAdjust="spacing" textLength="132.1592" x="1387" y="423.292">String : tableName</text><rect fill="none" height="6" style="stroke:#C82930;stroke-width:1;" width="6" x="1375" y="433.2422"/><text fill="#000000" font-family="sans-serif" font-size="14" lengthAdjust="spacing" textLength="247.0713" x="1387" y="439.5889">List&lt;ColumnNode&gt; : columnNodes</text><line style="stroke:#181818;stroke-width:0.5;" x1="1368" x2="1639.0713" y1="446.8906" y2="446.8906"/></g><!--class ColumnNode--><g class="entity" data-entity="ColumnNode" data-source-line="9" data-uid="ent0013" id="entity_ColumnNode"><rect fill="#F1F1F1" height="96.8906" rx="3.5" ry="3.5" style="stroke:#181818;stroke-width:0.5;" width="213.4414" x="1397" y="217.2969"/><ellipse cx="1454.3945" cy="233.2969" fill="#ADD1B2" rx="11" ry="11" style="stroke:#181818;stroke-width:1;"/><path d="M1457.3633,238.9375 Q1456.7852,239.2344 1456.1445,239.375 Q1455.5039,239.5313 1454.8008,239.5313 Q1452.3008,239.5313 1450.9727,237.8906 Q1449.6602,236.2344 1449.6602,233.1094 Q1449.6602,229.9844 1450.9727,228.3281 Q1452.3008,226.6719 1454.8008,226.6719 Q1455.5039,226.6719 1456.1445,226.8281 Q1456.8008,226.9844 1457.3633,227.2813 L1457.3633,230 Q1456.7383,229.4219 1456.1445,229.1563 Q1455.5508,228.875 1454.9258,228.875 Q1453.582,228.875 1452.8945,229.9531 Q1452.207,231.0156 1452.207,233.1094 Q1452.207,235.2031 1452.8945,236.2813 Q1453.582,237.3438 1454.9258,237.3438 Q1455.5508,237.3438 1456.1445,237.0781 Q1456.7383,236.7969 1457.3633,236.2188 L1457.3633,238.9375 Z " fill="#000000"/><text fill="#000000" font-family="sans-serif" font-size="14" lengthAdjust="spacing" textLength="90.1523" x="1474.8945" y="238.1436">ColumnNode</text><line style="stroke:#181818;stroke-width:0.5;" x1="1398" x2="1609.4414" y1="249.2969" y2="249.2969"/><rect fill="none" height="6" style="stroke:#C82930;stroke-width:1;" width="6" x="1405" y="259.9453"/><text fill="#000000" font-family="sans-serif" font-size="14" lengthAdjust="spacing" textLength="148.2373" x="1417" y="266.292">String : columnName</text><rect fill="none" height="6" style="stroke:#C82930;stroke-width:1;" width="6" x="1405" y="276.2422"/><text fill="#000000" font-family="sans-serif" font-size="14" lengthAdjust="spacing" textLength="187.4414" x="1417" y="282.5889">ColumnType : columnType</text><rect fill="none" height="6" style="stroke:#C82930;stroke-width:1;" width="6" x="1405" y="292.5391"/><text fill="#000000" font-family="sans-serif" font-size="14" lengthAdjust="spacing" textLength="67.7236" x="1417" y="298.8857">bool : isId</text><line style="stroke:#181818;stroke-width:0.5;" x1="1398" x2="1609.4414" y1="306.1875" y2="306.1875"/></g><!--class ColumnType--><g class="entity" data-entity="ColumnType" data-source-line="10" data-uid="ent0015" id="entity_ColumnType"><rect fill="#F1F1F1" height="113.1875" rx="3.5" ry="3.5" style="stroke:#181818;stroke-width:0.5;" width="119.9512" x="1443.5" y="44.2969"/><ellipse cx="1458.5" cy="60.2969" fill="#EB937F" rx="11" ry="11" style="stroke:#181818;stroke-width:1;"/><path d="M1462.6094,66.2969 L1454.8906,66.2969 L1454.8906,53.9063 L1462.6094,53.9063 L1462.6094,56.0625 L1457.3438,56.0625 L1457.3438,58.7344 L1462.1094,58.7344 L1462.1094,60.8906 L1457.3438,60.8906 L1457.3438,64.1406 L1462.6094,64.1406 L1462.6094,66.2969 Z " fill="#000000"/><text fill="#000000" font-family="sans-serif" font-size="14" lengthAdjust="spacing" textLength="87.9512" x="1472.5" y="65.1436">ColumnType</text><line style="stroke:#181818;stroke-width:0.5;" x1="1444.5" x2="1562.4512" y1="76.2969" y2="76.2969"/><text fill="#000000" font-family="sans-serif" font-size="14" lengthAdjust="spacing" textLength="72.9395" x="1449.5" y="93.292">VARCHAR,</text><text fill="#000000" font-family="sans-serif" font-size="14" lengthAdjust="spacing" textLength="27.6035" x="1449.5" y="109.5889">INT,</text><text fill="#000000" font-family="sans-serif" font-size="14" lengthAdjust="spacing" textLength="39.8535" x="1449.5" y="125.8857">UUID,</text><text fill="#000000" font-family="sans-serif" font-size="14" lengthAdjust="spacing" textLength="13.3506" x="1449.5" y="142.1826">...</text><line style="stroke:#181818;stroke-width:0.5;" x1="1444.5" x2="1562.4512" y1="149.4844" y2="149.4844"/></g><!--class CodeGenerator--><g class="entity" data-entity="CodeGenerator" data-source-line="11" data-uid="ent0017" id="entity_CodeGenerator"><rect fill="#F1F1F1" height="64.2969" rx="3.5" ry="3.5" style="stroke:#181818;stroke-width:0.5;" width="600.2734" x="363.5" y="523.7969"/><ellipse cx="605.9194" cy="539.7969" fill="#ADD1B2" rx="11" ry="11" style="stroke:#181818;stroke-width:1;"/><path d="M608.8882,545.4375 Q608.3101,545.7344 607.6694,545.875 Q607.0288,546.0313 606.3257,546.0313 Q603.8257,546.0313 602.4976,544.3906 Q601.1851,542.7344 601.1851,539.6094 Q601.1851,536.4844 602.4976,534.8281 Q603.8257,533.1719 606.3257,533.1719 Q607.0288,533.1719 607.6694,533.3281 Q608.3257,533.4844 608.8882,533.7813 L608.8882,536.5 Q608.2632,535.9219 607.6694,535.6563 Q607.0757,535.375 606.4507,535.375 Q605.1069,535.375 604.4194,536.4531 Q603.7319,537.5156 603.7319,539.6094 Q603.7319,541.7031 604.4194,542.7813 Q605.1069,543.8438 606.4507,543.8438 Q607.0757,543.8438 607.6694,543.5781 Q608.2632,543.2969 608.8882,542.7188 L608.8882,545.4375 Z " fill="#000000"/><text fill="#000000" font-family="sans-serif" font-size="14" lengthAdjust="spacing" textLength="106.9346" x="626.4194" y="544.6436">CodeGenerator</text><line style="stroke:#181818;stroke-width:0.5;" x1="364.5" x2="962.7734" y1="555.7969" y2="555.7969"/><line style="stroke:#181818;stroke-width:0.5;" x1="364.5" x2="962.7734" y1="563.7969" y2="563.7969"/><ellipse cx="374.5" cy="577.4453" fill="#84BE84" rx="3" ry="3" style="stroke:#038048;stroke-width:1;"/><text fill="#000000" font-family="sans-serif" font-size="14" lengthAdjust="spacing" text-decoration="underline" textLength="574.2734" x="383.5" y="580.792">List&lt;GeneratedCode&gt; : generateCodeFromGraph(TableRelationshipGraph graph)</text></g><!--class GeneratedCode--><g class="entity" data-entity="GeneratedCode" data-source-line="12" data-uid="ent0019" id="entity_GeneratedCode"><rect fill="#F1F1F1" height="80.5938" rx="3.5" ry="3.5" style="stroke:#181818;stroke-width:0.5;" width="152.499" x="587.5" y="374.2969"/><ellipse cx="607.1736" cy="390.2969" fill="#ADD1B2" rx="11" ry="11" style="stroke:#181818;stroke-width:1;"/><path d="M610.1423,395.9375 Q609.5642,396.2344 608.9236,396.375 Q608.283,396.5313 607.5798,396.5313 Q605.0798,396.5313 603.7517,394.8906 Q602.4392,393.2344 602.4392,390.1094 Q602.4392,386.9844 603.7517,385.3281 Q605.0798,383.6719 607.5798,383.6719 Q608.283,383.6719 608.9236,383.8281 Q609.5798,383.9844 610.1423,384.2813 L610.1423,387 Q609.5173,386.4219 608.9236,386.1563 Q608.3298,385.875 607.7048,385.875 Q606.3611,385.875 605.6736,386.9531 Q604.9861,388.0156 604.9861,390.1094 Q604.9861,392.2031 605.6736,393.2813 Q606.3611,394.3438 607.7048,394.3438 Q608.3298,394.3438 608.9236,394.0781 Q609.5173,393.7969 610.1423,393.2188 L610.1423,395.9375 Z " fill="#000000"/><text fill="#000000" font-family="sans-serif" font-size="14" lengthAdjust="spacing" textLength="110.1133" x="622.2122" y="395.1436">GeneratedCode</text><line style="stroke:#181818;stroke-width:0.5;" x1="588.5" x2="738.999" y1="406.2969" y2="406.2969"/><rect fill="none" height="6" style="stroke:#C82930;stroke-width:1;" width="6" x="595.5" y="416.9453"/><text fill="#000000" font-family="sans-serif" font-size="14" lengthAdjust="spacing" textLength="96.0381" x="607.5" y="423.292">String : entity</text><rect fill="none" height="6" style="stroke:#C82930;stroke-width:1;" width="6" x="595.5" y="433.2422"/><text fill="#000000" font-family="sans-serif" font-size="14" lengthAdjust="spacing" textLength="126.499" x="607.5" y="439.5889">String : repository</text><line style="stroke:#181818;stroke-width:0.5;" x1="588.5" x2="738.999" y1="446.8906" y2="446.8906"/></g><!--class SqlParser--><g class="entity" data-entity="SqlParser" data-source-line="13" data-uid="ent0021" id="entity_SqlParser"><rect fill="#F1F1F1" height="64.2969" rx="3.5" ry="3.5" style="stroke:#181818;stroke-width:0.5;" width="309.9033" x="1205.5" y="780.2969"/><ellipse cx="1323.1499" cy="796.2969" fill="#ADD1B2" rx="11" ry="11" style="stroke:#181818;stroke-width:1;"/><path d="M1326.1187,801.9375 Q1325.5405,802.2344 1324.8999,802.375 Q1324.2593,802.5313 1323.5562,802.5313 Q1321.0562,802.5313 1319.728,800.8906 Q1318.4155,799.2344 1318.4155,796.1094 Q1318.4155,792.9844 1319.728,791.3281 Q1321.0562,789.6719 1323.5562,789.6719 Q1324.2593,789.6719 1324.8999,789.8281 Q1325.5562,789.9844 1326.1187,790.2813 L1326.1187,793 Q1325.4937,792.4219 1324.8999,792.1563 Q1324.3062,791.875 1323.6812,791.875 Q1322.3374,791.875 1321.6499,792.9531 Q1320.9624,794.0156 1320.9624,796.1094 Q1320.9624,798.2031 1321.6499,799.2813 Q1322.3374,800.3438 1323.6812,800.3438 Q1324.3062,800.3438 1324.8999,800.0781 Q1325.4937,799.7969 1326.1187,799.2188 L1326.1187,801.9375 Z " fill="#000000"/><text fill="#000000" font-family="sans-serif" font-size="14" lengthAdjust="spacing" textLength="66.1035" x="1343.6499" y="801.1436">SqlParser</text><line style="stroke:#181818;stroke-width:0.5;" x1="1206.5" x2="1514.4033" y1="812.2969" y2="812.2969"/><line style="stroke:#181818;stroke-width:0.5;" x1="1206.5" x2="1514.4033" y1="820.2969" y2="820.2969"/><ellipse cx="1216.5" cy="833.9453" fill="#84BE84" rx="3" ry="3" style="stroke:#038048;stroke-width:1;"/><text fill="#000000" font-family="sans-serif" font-size="14" lengthAdjust="spacing" text-decoration="underline" textLength="283.9033" x="1225.5" y="837.292">List&lt;TableNode&gt; : parse(String sqlText)</text></g><!--class SqlStatementParser--><g class="entity" data-entity="SqlStatementParser" data-source-line="14" data-uid="ent0023" id="entity_SqlStatementParser"><rect fill="#F1F1F1" height="64.2969" rx="3.5" ry="3.5" style="stroke:#181818;stroke-width:0.5;" width="494.542" x="963" y="656.2969"/><ellipse cx="1136.1338" cy="672.2969" fill="#ADD1B2" rx="11" ry="11" style="stroke:#181818;stroke-width:1;"/><path d="M1139.1025,677.9375 Q1138.5244,678.2344 1137.8838,678.375 Q1137.2432,678.5313 1136.54,678.5313 Q1134.04,678.5313 1132.7119,676.8906 Q1131.3994,675.2344 1131.3994,672.1094 Q1131.3994,668.9844 1132.7119,667.3281 Q1134.04,665.6719 1136.54,665.6719 Q1137.2432,665.6719 1137.8838,665.8281 Q1138.54,665.9844 1139.1025,666.2813 L1139.1025,669 Q1138.4775,668.4219 1137.8838,668.1563 Q1137.29,667.875 1136.665,667.875 Q1135.3213,667.875 1134.6338,668.9531 Q1133.9463,670.0156 1133.9463,672.1094 Q1133.9463,674.2031 1134.6338,675.2813 Q1135.3213,676.3438 1136.665,676.3438 Q1137.29,676.3438 1137.8838,676.0781 Q1138.4775,675.7969 1139.1025,675.2188 L1139.1025,677.9375 Z " fill="#000000"/><text fill="#000000" font-family="sans-serif" font-size="14" lengthAdjust="spacing" textLength="139.7744" x="1156.6338" y="677.1436">SqlStatementParser</text><line style="stroke:#181818;stroke-width:0.5;" x1="964" x2="1456.542" y1="688.2969" y2="688.2969"/><line style="stroke:#181818;stroke-width:0.5;" x1="964" x2="1456.542" y1="696.2969" y2="696.2969"/><ellipse cx="974" cy="709.9453" fill="#84BE84" rx="3" ry="3" style="stroke:#038048;stroke-width:1;"/><text fill="#000000" font-family="sans-serif" font-size="14" lengthAdjust="spacing" text-decoration="underline" textLength="468.542" x="983" y="713.292">List&lt;TableNode&gt; : parseStatements(List&lt;String&gt; rawStatements)</text></g><!--reverse link SqlToCodeRequest to Controller--><g class="link" data-entity-1="SqlToCodeRequest" data-entity-2="Controller" data-source-line="4" data-uid="lnk4" id="link_SqlToCodeRequest_Controller"><path codeLine="4" d="M231.5,600.0569 C231.5,620.7169 231.5,635.6869 231.5,656.2969" fill="none" id="SqlToCodeRequest-backto-Controller" style="stroke:#454645;stroke-width:1;"/><polygon fill="none" points="231.5,588.0569,227.5,594.0569,231.5,600.0569,235.5,594.0569,231.5,588.0569" style="stroke:#454645;stroke-width:1;"/></g><!--link Controller to ParserService--><g class="link" data-entity-1="Controller" data-entity-2="ParserService" data-source-line="5" data-uid="lnk6" id="link_Controller_ParserService"><path codeLine="5" d="M456.03,688.2969 C467.75,688.2969 473.46,688.2969 485.18,688.2969" fill="none" id="Controller-to-ParserService" style="stroke:#454645;stroke-width:1;"/><polygon fill="#454645" points="491.18,688.2969,482.18,684.2969,486.18,688.2969,482.18,692.2969,491.18,688.2969" style="stroke:#454645;stroke-width:1;"/></g><!--reverse link GeneratedCodeDto to ParserService--><g class="link" data-entity-1="GeneratedCodeDto" data-entity-2="ParserService" data-source-line="6" data-uid="lnk8" id="link_GeneratedCodeDto_ParserService"><path codeLine="6" d="M1006.0808,591.495 C942.0208,612.185 869.54,635.5969 805.49,656.2869" fill="none" id="GeneratedCodeDto-backto-ParserService" style="stroke:#454645;stroke-width:1;"/><polygon fill="none" points="1017.5,587.8069,1010.561,585.8446,1006.0808,591.495,1013.0198,593.4573,1017.5,587.8069" style="stroke:#454645;stroke-width:1;"/></g><!--reverse link TableRelationshipGraph to ParserService--><g class="link" data-entity-1="TableRelationshipGraph" data-entity-2="ParserService" data-source-line="7" data-uid="lnk10" id="link_TableRelationshipGraph_ParserService"><path codeLine="7" d="M1260.129,596.7936 C1141.339,616.3236 1010.32,637.8569 898.3,656.2669" fill="none" id="TableRelationshipGraph-backto-ParserService" style="stroke:#454645;stroke-width:1;"/><polygon fill="none" points="1271.97,594.8469,1265.4006,591.8732,1260.129,596.7936,1266.6984,599.7673,1271.97,594.8469" style="stroke:#454645;stroke-width:1;"/></g><!--reverse link TableNode to TableRelationshipGraph--><g class="link" data-entity-1="TableNode" data-entity-2="TableRelationshipGraph" data-source-line="8" data-uid="lnk12" id="link_TableNode_TableRelationshipGraph"><path codeLine="8" d="M1503.5,467.6269 C1503.5,486.2369 1503.5,496.3469 1503.5,514.9569" fill="none" id="TableNode-backto-TableRelationshipGraph" style="stroke:#454645;stroke-width:1;"/><polygon fill="#454645" points="1503.5,455.6269,1499.5,461.6269,1503.5,467.6269,1507.5,461.6269,1503.5,455.6269" style="stroke:#454645;stroke-width:1;"/></g><!--reverse link ColumnNode to TableNode--><g class="link" data-entity-1="ColumnNode" data-entity-2="TableNode" data-source-line="9" data-uid="lnk14" id="link_ColumnNode_TableNode"><path codeLine="9" d="M1503.5,326.5269 C1503.5,345.8069 1503.5,355.7969 1503.5,374.1769" fill="none" id="ColumnNode-backto-TableNode" style="stroke:#454645;stroke-width:1;"/><polygon fill="#454645" points="1503.5,314.5269,1499.5,320.5269,1503.5,326.5269,1507.5,320.5269,1503.5,314.5269" style="stroke:#454645;stroke-width:1;"/></g><!--reverse link ColumnType to ColumnNode--><g class="link" data-entity-1="ColumnType" data-entity-2="ColumnNode" data-source-line="10" data-uid="lnk16" id="link_ColumnType_ColumnNode"><path codeLine="10" d="M1503.5,169.4369 C1503.5,188.8969 1503.5,198.5469 1503.5,217.2869" fill="none" id="ColumnType-backto-ColumnNode" style="stroke:#454645;stroke-width:1;"/><polygon fill="#454645" points="1503.5,157.4369,1499.5,163.4369,1503.5,169.4369,1507.5,163.4369,1503.5,157.4369" style="stroke:#454645;stroke-width:1;"/></g><!--reverse link CodeGenerator to ParserService--><g class="link" data-entity-1="CodeGenerator" data-entity-2="ParserService" data-source-line="11" data-uid="lnk18" id="link_CodeGenerator_ParserService"><path codeLine="11" d="M678.5081,599.3748 C685.7881,620.0348 691.31,635.6869 698.57,656.2969" fill="none" id="CodeGenerator-backto-ParserService" style="stroke:#454645;stroke-width:1;"/><polygon fill="none" points="674.52,588.0569,672.7414,595.0452,678.5081,599.3748,680.2867,592.3865,674.52,588.0569" style="stroke:#454645;stroke-width:1;"/></g><!--reverse link GeneratedCode to CodeGenerator--><g class="link" data-entity-1="GeneratedCode" data-entity-2="CodeGenerator" data-source-line="12" data-uid="lnk20" id="link_GeneratedCode_CodeGenerator"><path codeLine="12" d="M663.5,467.6269 C663.5,489.2869 663.5,503.6869 663.5,523.7969" fill="none" id="GeneratedCode-backto-CodeGenerator" style="stroke:#454645;stroke-width:1;"/><polygon fill="none" points="663.5,455.6269,659.5,461.6269,663.5,467.6269,667.5,461.6269,663.5,455.6269" style="stroke:#454645;stroke-width:1;"/></g><!--link TableRelationshipGraph to SqlParser--><g class="link" data-entity-1="TableRelationshipGraph" data-entity-2="SqlParser" data-source-line="13" data-uid="lnk22" id="link_TableRelationshipGraph_SqlParser"><path codeLine="13" d="M1504.47,596.4969 C1503.59,631.4069 1497.98,682.4069 1475.5,720.2969 C1461.08,744.5969 1437.54,764.9369 1415.51,780.1769" fill="none" id="TableRelationshipGraph-SqlParser" style="stroke:#454645;stroke-width:1;"/></g><!--reverse link SqlStatementParser to SqlParser--><g class="link" data-entity-1="SqlStatementParser" data-entity-2="SqlParser" data-source-line="14" data-uid="lnk24" id="link_SqlStatementParser_SqlParser"><path codeLine="14" d="M1258.049,727.9694 C1280.619,746.3294 1299.77,761.9069 1322.33,780.2569" fill="none" id="SqlStatementParser-backto-SqlParser" style="stroke:#454645;stroke-width:1;"/><polygon fill="#454645" points="1248.74,720.3969,1250.8703,727.2861,1258.049,727.9694,1255.9187,721.0802,1248.74,720.3969" style="stroke:#454645;stroke-width:1;"/></g><!--SRC=[bLHDRzim3BthLsYdfbkSteiXW9DucG4xwM9dM7Tp7IqHO5kkf6mBWlxtKP8_fBe6keieaTGZzVZi3_94Ie8bko19PK7mcbI4PvBWd1q8_iLPYPDl4KB9Sv6o9VXsvFbCXCJCy_2ILPApeY0SzLliSNeyIM-E7p8k24y8_qrpWbhaWq9PIQOHt9GqUogWG959oYfnelMQP_LfB76ZElm8iRUlGKl5kQpSB7Lg0kcbDe4-3wdMcZuPVwEkyuQ60kl6s0CyI0G23PQYCf40Kf9A6fTkeqz0UP49OR6Bh-WJ7l1tZqKxbCbWFDpOMuJnImiuIBeYA2ivhOu6p4vs7ZxMGAsI0FPzzKVOKLr4LCZFtOJc02tRWu3ILm64qVnb3E9UA_N_6j72S1Wm9REIj0trob0TvTr9s62Mp1oq9jt0MP9h8-e0aIV62l1H4HuqAiOThgMigqs2xisPXchls3ZK-GkmePcPZ11sLEijigNHI75OoHcBdlYaUQJI7_ahNPpNsduFO7T7J7I6mPzZdltfGxeCgSwbpUOLtTsWHRWED-bKsIJOXNwajd3-xk-qNMotu5f-zNVQPpOhFmrWtUuN4LYu7wm3SCVRJV0uHPjz34ZBATe52Yw9_IZIDVIkhTBQDFW1eJIC0xEcFurDKZz-iBRAlz-7AtHprpUYOPLtYcQpMS_bu7lhFfJ1xDNFsjQa-vzoP0bCKdcnFPpKJ50GsKL1_0C0]--></g></svg>